<svg xmlns="http://www.w3.org/2000/svg" xmlns:xlink="http://www.w3.org/1999/xlink" fill="none" version="1.1" width="378" height="650" viewBox="0 0 378 650"><clipPath id="master_svg0_0_616"><rect x="0" y="0" width="378" height="650" rx="0"/></clipPath><g style="mix-blend-mode:passthrough"><g><g clip-path="url(#master_svg0_0_616)" style="mix-blend-mode:passthrough"><rect x="0" y="0" width="378" height="650" rx="0" fill="#409EFF" fill-opacity="1"/><g><g style="mix-blend-mode:passthrough"><g><g style="mix-blend-mode:passthrough"><g><g style="mix-blend-mode:passthrough"><path d="M118.36489765625,48.35400390625C118.36489765625,48.35400390625,125.73769765625,48.35400390625,125.73769765625,48.35400390625C125.73769765625,48.35400390625,122.97289765625,72.93000390625,122.97289765625,72.93000390625C122.97289765625,72.93000390625,115.60009765625,72.93000390625,115.60009765625,72.93000390625C115.60009765625,72.93000390625,118.36489765625,48.35400390625,118.36489765625,48.35400390625C118.36489765625,48.35400390625,118.36489765625,48.35400390625,118.36489765625,48.35400390625ZM130.34569765625,48.35400390625C130.34569765625,48.35400390625,137.71849765625,48.35400390625,137.71849765625,48.35400390625C137.71849765625,48.35400390625,134.95369765625,72.93000390625,134.95369765625,72.93000390625C134.95369765625,72.93000390625,127.58089765625,72.93000390625,127.58089765625,72.93000390625C127.58089765625,72.93000390625,130.34569765625,48.35400390625,130.34569765625,48.35400390625C130.34569765625,48.35400390625,130.34569765625,48.35400390625,130.34569765625,48.35400390625ZM142.32649765625,48.35400390625C142.32649765625,48.35400390625,149.69929765625,48.35400390625,149.69929765625,48.35400390625C149.69929765625,48.35400390625,146.93449765625,72.93000390625,146.93449765625,72.93000390625C146.93449765625,72.93000390625,139.56169765625,72.93000390625,139.56169765625,72.93000390625C139.56169765625,72.93000390625,142.32649765625,48.35400390625,142.32649765625,48.35400390625C142.32649765625,48.35400390625,142.32649765625,48.35400390625,142.32649765625,48.35400390625Z" fill="#FFFFFF" fill-opacity="1"/></g><g style="mix-blend-mode:passthrough"><path d="M118.6722412109375,48.35400390625C118.6722412109375,48.35400390625,133.1106412109375,48.35400390625,133.1106412109375,48.35400390625C133.1106412109375,48.35400390625,133.1106412109375,55.72680390625,133.1106412109375,55.72680390625C133.1106412109375,55.72680390625,118.6722412109375,55.72680390625,118.6722412109375,55.72680390625C118.6722412109375,55.72680390625,118.6722412109375,48.35400390625,118.6722412109375,48.35400390625C118.6722412109375,48.35400390625,118.6722412109375,48.35400390625,118.6722412109375,48.35400390625ZM130.3458412109375,65.55720390625C130.3458412109375,65.55720390625,144.7842412109375,65.55720390625,144.7842412109375,65.55720390625C144.7842412109375,65.55720390625,144.7842412109375,72.93000390625,144.7842412109375,72.93000390625C144.7842412109375,72.93000390625,130.3458412109375,72.93000390625,130.3458412109375,72.93000390625C130.3458412109375,72.93000390625,130.3458412109375,65.55720390625,130.3458412109375,65.55720390625C130.3458412109375,65.55720390625,130.3458412109375,65.55720390625,130.3458412109375,65.55720390625Z" fill="#FFFFFF" fill-opacity="1"/></g><g style="mix-blend-mode:passthrough"><path d="M118.67223000526428,41.902690995788575C118.67223000526428,42.96186099578858,119.09298300526429,43.97765099578857,119.84193000526429,44.72659099578858C120.59087000526428,45.47554099578858,121.60666000526429,45.896290995788576,122.66583000526428,45.896290995788576C123.72500000526428,45.896290995788576,124.74079000526429,45.47554099578858,125.48973000526428,44.72659099578858C126.23868000526429,43.97765099578857,126.65943000526428,42.96186099578858,126.65943000526428,41.902690995788575C126.65943000526428,41.37824099578857,126.55613000526428,40.858930995788576,126.35543000526428,40.37441099578857C126.15474000526429,39.88988099578857,125.86057000526428,39.449630995788574,125.48973000526428,39.07879099578857C125.11889000526428,38.70794899578858,124.67864000526428,38.41378299578857,124.19411000526428,38.213085995788575C123.70959000526429,38.01238799578857,123.19028000526428,37.909090995788574,122.66583000526428,37.909090995788574C122.14138000526428,37.909090995788574,121.62207000526428,38.01238799578857,121.13755000526429,38.213085995788575C120.65302000526428,38.41378299578857,120.21277000526428,38.70794899578858,119.84193000526429,39.07879099578857C119.47108800526428,39.449630995788574,119.17692200526429,39.88988099578857,118.97622500526428,40.37441099578857C118.77552800526428,40.858930995788576,118.67222999421239,41.37824099578857,118.67223000526428,41.902690995788575C118.67223000526428,41.902690995788575,118.67223000526428,41.902690995788575,118.67223000526428,41.902690995788575C118.67223000526428,41.902690995788575,118.67223000526428,41.902690995788575,118.67223000526428,41.902690995788575Z" fill="#FFFFFF" fill-opacity="1"/></g></g></g><g style="mix-blend-mode:passthrough"><g><g style="mix-blend-mode:passthrough"><path d="M178.638,53.5496Q180.0378,55.3921,182.4792,57.2996L181.00130000000001,59.506699999999995Q178.7227,57.729299999999995,177.1992,55.7632Q175.7604,57.5796,173.2734,59.6239L171.63932,57.605599999999995Q174.4128,55.5614,175.8385,53.6733Q174.862,51.8634,174.3411,49.8517Q174.1393,50.1707,173.7031,50.8153L172.375,48.810050000000004L172.68099,48.31526L170.6237,48.31526Q170.20052,48.81656,169.71875,49.3309L172.55729,49.3309L172.55729,51.153800000000004L170.14193,53.2046L170.14193,53.4259L173.4427,53.0158L173.5404,55.007999999999996L170.14193,55.418099999999995L170.14193,57.2215Q170.14193,58.5171,169.67969,59.0119Q169.21745,59.506699999999995,167.98047,59.506699999999995Q166.9388,59.506699999999995,165.90365,59.3895L165.44141,57.2215Q166.30078,57.384299999999996,167.08203,57.384299999999996Q167.58333,57.384299999999996,167.7526,57.1824Q167.92188,56.9741,167.92188,56.3621L167.92188,55.7046L164.36068,56.1733L164.13932,54.1681L167.92188,53.7124L167.92188,52.7293L169.62109,51.1733L167.82422,51.1733Q166.52865,52.3452,164.71875,53.653800000000004L163.481771,51.7658Q164.34115,51.1994,164.64062,50.9715L164.64062,49.3309L166.69792,49.3309L167.75911,48.31526L163.878906,48.31526L163.878906,46.23193L167.01693,46.23193L167.01693,44.92333L164.64062,44.92333L164.64062,42.92464L167.01693,42.92464L167.01693,41.08219L169.10026,41.08219L169.10026,42.92464L170.98177,42.92464L170.98177,44.22021Q171.67188,43.11995,172.29688,41.86344L174.1589,42.7749Q173.2148,44.68896,172.16016,46.23193L173,46.23193L173,47.73583Q173.7878,46.23844,174.4844,44.32438Q175.181,42.41031,175.4023,41.06266L177.7396,41.28401Q177.4401,42.50797,177.0234,43.8426L182.1406,43.8426L182.1406,46.05615L180.8776,46.05615Q180.5781,48.36734,180.0378,50.1903Q179.4974,52.0132,178.638,53.5496ZM169.10026,44.92333L169.10026,46.23193L169.58203,46.23193Q170.14193,45.528800000000004,170.53906,44.92333L169.10026,44.92333ZM175.9036,46.89599Q176.3268,49.396,177.2643,51.2775Q178.1628,49.2983,178.6185,46.05615L176.2422,46.05615Q176.138,46.33609,175.9036,46.89599ZM186.737,46.59L186.737,49.0054L184.3346,49.0054L184.3346,44.28531L187.3359,44.28531Q186.9518,43.5887,186.3984,42.67073L185.8971,41.78531L188.0977,40.86734Q188.2214,41.10823,188.9375,42.30615L189.6797,43.60823L187.9414,44.28531L192.2057,44.28531Q192.0495,43.90771,191.4896,42.74885Q191.0469,41.86995,190.9036,41.55094L193.0391,40.68505Q194.1393,42.72932,194.5625,43.60823L192.5443,44.28531L195.7604,44.28531Q197.1797,42.13037,197.8177,40.80875L200.2201,41.80484Q200.2201,41.80484,198.8984,43.79052L198.5599,44.28531L201.6849,44.28531L201.6849,49.0054L199.3607,49.0054L199.3607,46.59L186.737,46.59ZM201.763,52.4233L201.763,54.6434L194.6406,54.6434L194.6406,56.7528Q194.6406,58.3022,193.9766,58.9012Q193.319,59.506699999999995,191.6784,59.506699999999995Q190.4023,59.506699999999995,189.1393,59.3244L188.6185,57.0262Q189.901,57.2671,191.1185,57.2671Q191.6393,57.2671,191.8411,57.006699999999995Q192.043,56.7397,192.043,56.0561L192.043,54.6434L184.2174,54.6434L184.2174,52.4233L192.043,52.4233L192.043,51.759299999999996L194.8815,50.34L187.49869999999999,50.34L187.49869999999999,48.15901L198.599,48.15901L198.599,50.314L194.8034,52.4233L201.763,52.4233ZM203.8333,48.25667L222.15359999999998,48.25667L222.15359999999998,51.0106L203.8333,51.0106L203.8333,48.25667ZM240.8125,56.4272Q239.9336,55.4897,239.1719,54.3699L239.1719,56.3296L236.2747,56.3296L236.2747,59.506699999999995L233.9505,59.506699999999995L233.9505,56.3296L231.0924,56.3296L231.0924,54.2332Q230.2917,55.3921,229.3672,56.4728L228.1628,54.6108L228.1628,59.4481L225.8776,59.4481L225.8776,50.4116Q225.1224,51.544399999999996,224.3216,52.5015L223.50130000000001,49.6759Q224.6016,48.20458,225.7344,45.80224Q226.8672,43.39339,227.54430000000002,41.02359L229.9336,41.47281Q229.1784,44.0249,228.1628,46.27099L228.1628,53.9338Q229.75130000000001,52.2671,230.8385,50.4963Q231.92579999999998,48.72542,232.7135,46.59L229.25,46.59L229.25,44.29182L233.9505,44.29182L233.9505,41.14729L236.2747,41.14729L236.2747,44.29182L241.5547,44.29182L241.5547,46.59L237.5312,46.59Q239.0352,50.7176,242.3945,54.1681L240.8125,56.4272ZM233.9505,54.09L233.9505,48.5887Q232.99349999999998,51.4989,231.1901,54.09L233.9505,54.09ZM236.2747,54.09L238.9701,54.09Q237.2904,51.603,236.2747,48.60823L236.2747,54.09ZM250.6953,42.14339Q249.9336,44.58479,248.81380000000001,46.76578L248.81380000000001,59.506699999999995L246.3333,59.506699999999995L246.3333,50.7827Q245.6107,51.7983,244.5104,53.0874L243.5534,50.4246Q244.9922,48.64729,246.3203,46.14078Q247.6549,43.62776,248.332,41.38818L250.6953,42.14339ZM262.0885,53.2241Q262.0885,53.966300000000004,262.0365,55.047Q261.9844,56.121300000000005,261.8607,56.7007Q261.76300000000003,58.1265,261.11199999999997,58.7775Q260.4609,59.4285,258.9635,59.5262Q258.1107,59.5848,257.2057,59.5848Q256.3268,59.5848,255.4284,59.5262Q254.38670000000002,59.4481,253.76170000000002,59.1356Q253.14319999999998,58.8296,252.86329999999998,58.146Q252.5833,57.468900000000005,252.5833,56.3035L252.5833,53.5236Q251.74349999999998,54.1291,250.3177,55.0015L249.0677,52.7228Q250.9232,51.603,252.5833,50.366L252.5833,41.50537L255.1224,41.50537L255.1224,48.36734Q257.694,46.16682,259.901,43.66682L261.6654,45.52229Q258.4427,49.0574,255.1224,51.6811L255.1224,55.7241Q255.1224,56.446799999999996,255.31119999999999,56.7267Q255.50650000000002,57.006699999999995,256.0339,57.0653Q256.68489999999997,57.1239,257.2969,57.1239Q257.9414,57.1239,258.5534,57.0653Q259.1393,57.006699999999995,259.3737,56.7267Q259.6081,56.446799999999996,259.6471,55.808800000000005L259.7057,53.6864L259.7253,52.6642L262.0885,53.2241Z" fill="#FFFFFF" fill-opacity="1"/></g><g style="mix-blend-mode:passthrough"><path d="M163.208333,68.92L168.625,68.92L168.625,69.73706L166.39844,69.73706L166.39844,76.42L165.5,76.42L165.5,69.73706L163.208333,69.73706L163.208333,68.92ZM171.69466,71.1075Q172.35872,71.1075,172.86003,71.41675000000001Q173.3613,71.72273,173.6283,72.25008Q173.8984,72.77742,173.8984,73.42520999999999Q173.8984,73.69539,173.8594,73.92L170.14844,73.92Q170.14844,74.82169,170.61719,75.2644Q171.08594,75.7071,171.80208,75.7071Q172.6875,75.7071,173.0846,74.99746999999999L173.7064,75.37180000000001Q173.5046,75.922,172.96094,76.2247Q172.42057,76.52420000000001,171.75651,76.52420000000001Q171.0599,76.52420000000001,170.48698,76.2052Q169.91732,75.8861,169.58203,75.2709Q169.25,74.65568,169.25,73.7963Q169.25,72.96621999999999,169.58203,72.3575Q169.91732,71.74552,170.4707,71.42651000000001Q171.02734,71.1075,171.69466,71.1075ZM171.68164,71.92456Q171.11198,71.92456,170.69206,72.22729Q170.27213,72.52677,170.1582,73.10294L173,73.10294Q173,72.54305,172.63542,72.2338Q172.27083,71.92456,171.68164,71.92456ZM176.9095,71.1075Q177.7852,71.1075,178.3418,71.64461Q178.8984,72.17846,178.8984,73.16805L178.8984,76.42L178.0814,76.42Q178.0814,75.8373,178.0814,75.668Q177.8438,76.0912,177.4434,76.30930000000001Q177.043,76.52420000000001,176.5286,76.52420000000001Q176.0371,76.52420000000001,175.6074,76.3321Q175.1777,76.1401,174.9206,75.75919999999999Q174.6667,75.3751,174.6667,74.84121999999999Q174.6667,74.03393,175.2786,73.56844Q175.8939,73.10294,176.8639,73.10294Q177.4141,73.10294,178,73.27871999999999L178,73.19734Q178,72.55281,177.7135,72.24031Q177.4271,71.92456,176.8477,71.92456Q176.3789,71.92456,176.0697,72.09383Q175.7604,72.2631,175.5456,72.59839L174.888,72.28263Q175.1289,71.74552,175.6693,71.42651000000001Q176.2129,71.1075,176.9095,71.1075ZM178,74.07625Q177.3913,73.92,176.8867,73.92Q176.252,73.92,175.9069,74.16414Q175.5651,74.40503,175.5651,74.84448Q175.5651,75.2481,175.8548,75.4792Q176.1478,75.7071,176.6133,75.7071Q177.18619999999999,75.7071,177.5931,75.37180000000001Q178,75.0365,178,74.44409L178,74.07625ZM182.5605,75.7071Q183.32229999999998,75.7071,183.752,75.0333L184.4225,75.4207Q184.14260000000002,75.9773,183.6673,76.2507Q183.1921,76.52420000000001,182.58010000000002,76.52420000000001Q181.8835,76.52420000000001,181.31380000000001,76.1856Q180.7441,75.8438,180.4121,75.23179999999999Q180.0833,74.61661,180.0833,73.81583Q180.0833,73.01505,180.4121,72.40307Q180.7441,71.78784,181.31380000000001,71.4493Q181.8835,71.1075,182.58010000000002,71.1075Q183.1921,71.1075,183.6673,71.38094Q184.14260000000002,71.65438,184.4225,72.21102L183.752,72.59839Q183.32229999999998,71.92456,182.5605,71.92456Q181.8607,71.92456,181.4212,72.42911Q180.9818,72.93367,180.9818,73.81583Q180.9818,74.69800000000001,181.4212,75.2026Q181.8607,75.7071,182.5605,75.7071ZM187.8437,71.1075Q188.6478,71.1075,189.1556,71.65763Q189.6667,72.20776000000001,189.6667,73.21688L189.6667,76.42L188.7682,76.42L188.7682,73.46102Q188.7682,72.72208,188.4785,72.32495Q188.18880000000001,71.92456,187.6224,71.92456Q187.2546,71.92456,186.9258,72.10034Q186.6003,72.27286,186.3952,72.61792Q186.1901,72.96297,186.1901,73.47078L186.1901,76.42L185.2917,76.42L185.2917,68.71167L186.1901,68.71167L186.1901,72.0157Q186.4603,71.56974,186.8867,71.33862Q187.3164,71.1075,187.8437,71.1075ZM191.4342,70.17Q191.2194,70.17,191.0664,69.9812Q190.9167,69.7924,190.9167,69.545Q190.9167,69.2976,191.0664,69.1088Q191.2194,68.92,191.4342,68.92Q191.6523,68.92,191.8053,69.10555Q191.9583,69.28784,191.9583,69.545Q191.9583,69.7924,191.7988,69.9812Q191.64260000000002,70.17,191.4342,70.17ZM191.9583,76.42L191.0599,76.42L191.0599,71.21167L191.9583,71.21167L191.9583,76.42ZM195.972,71.1075Q196.7956,71.1075,197.2936,71.65763Q197.7917,72.20776000000001,197.7917,73.21688L197.7917,76.42L196.8932,76.42L196.8932,73.46102Q196.8932,72.72208,196.6035,72.32495Q196.31380000000001,71.92456,195.7474,71.92456Q195.3796,71.92456,195.0508,72.10034Q194.7253,72.27286,194.5202,72.61792Q194.3151,72.96297,194.3151,73.47078L194.3151,76.42L193.4167,76.42L193.4167,71.21167L194.224,71.21167Q194.224,71.72599,194.276,72.09383Q194.5365,71.6088,194.9792,71.35815Q195.4219,71.1075,195.972,71.1075ZM203.6901,71.21167L203.6901,76.0587Q203.6901,77.5626,202.9674,78.1876Q202.2448,78.8158,201.24869999999999,78.8158Q200.4707,78.8158,199.86520000000002,78.4838Q199.263,78.155,199.04489999999998,77.5561L199.7415,77.1785Q200.1289,77.9988,201.2389,77.9988Q201.9583,77.9988,202.375,77.5658Q202.7917,77.1329,202.7917,76.0391L202.7917,75.5964Q202.5052,76.0652,202.0625,76.2963Q201.6198,76.52420000000001,201.112,76.52420000000001Q200.526,76.52420000000001,200.0019,76.2019Q199.4811,75.8764,199.1556,75.2611Q198.8333,74.64591,198.8333,73.81583Q198.8333,72.98576,199.1523,72.36727Q199.47140000000002,71.74552,199.99869999999999,71.42651000000001Q200.526,71.1075,201.112,71.1075Q201.6296,71.1075,202.0885,71.35815Q202.5508,71.6088,202.8307,72.10359Q202.8828,71.62833,202.8828,71.21167L203.6901,71.21167ZM201.2194,75.7071Q201.8607,75.7071,202.3262,75.2514Q202.7917,74.7924,202.7917,73.80932Q202.7917,72.83602,202.3262,72.38029Q201.8607,71.92456,201.2194,71.92456Q200.5456,71.92456,200.1387,72.4226Q199.7318,72.9174,199.7318,73.80932Q199.7318,74.71102,200.1387,75.2091Q200.5456,75.7071,201.2194,75.7071ZM208.3092,70.17Q208.0944,70.17,207.9414,69.9812Q207.7917,69.7924,207.7917,69.545Q207.7917,69.2976,207.9414,69.1088Q208.0944,68.92,208.3092,68.92Q208.5273,68.92,208.6803,69.10555Q208.8333,69.28784,208.8333,69.545Q208.8333,69.7924,208.6738,69.9812Q208.51760000000002,70.17,208.3092,70.17ZM208.8333,76.42L207.9349,76.42L207.9349,71.21167L208.8333,71.21167L208.8333,76.42ZM212.847,71.1075Q213.6706,71.1075,214.1686,71.65763Q214.6667,72.20776000000001,214.6667,73.21688L214.6667,76.42L213.7682,76.42L213.7682,73.46102Q213.7682,72.72208,213.4785,72.32495Q213.18880000000001,71.92456,212.6224,71.92456Q212.2546,71.92456,211.9258,72.10034Q211.6003,72.27286,211.3952,72.61792Q211.1901,72.96297,211.1901,73.47078L211.1901,76.42L210.2917,76.42L210.2917,71.21167L211.099,71.21167Q211.099,71.72599,211.151,72.09383Q211.4115,71.6088,211.8542,71.35815Q212.2969,71.1075,212.847,71.1075ZM218.8854,76.2442Q218.4785,76.52420000000001,217.8568,76.52420000000001Q216.3333,76.52420000000001,216.3333,74.7631L216.3333,72.02871999999999L215.5,72.02871999999999L215.5,71.21167L216.3333,71.21167L216.3333,69.64917L217.2318,69.64917L217.2318,71.21167L218.625,71.21167L218.625,72.02871999999999L217.2318,72.02871999999999L217.2318,74.64266Q217.2318,75.7071,217.987,75.7071Q218.31900000000002,75.7071,218.6055,75.5313L218.8854,76.2442ZM221.903,71.1075Q222.5671,71.1075,223.0684,71.41675000000001Q223.5697,71.72273,223.8366,72.25008Q224.1068,72.77742,224.1068,73.42520999999999Q224.1068,73.69539,224.0677,73.92L220.3568,73.92Q220.3568,74.82169,220.8255,75.2644Q221.2943,75.7071,222.0104,75.7071Q222.8958,75.7071,223.293,74.99746999999999L223.9147,75.37180000000001Q223.7129,75.922,223.1693,76.2247Q222.6289,76.52420000000001,221.9648,76.52420000000001Q221.2682,76.52420000000001,220.6953,76.2052Q220.1256,75.8861,219.7904,75.2709Q219.4583,74.65568,219.4583,73.7963Q219.4583,72.96621999999999,219.7904,72.3575Q220.1256,71.74552,220.679,71.42651000000001Q221.2357,71.1075,221.903,71.1075ZM221.89,71.92456Q221.3203,71.92456,220.9004,72.22729Q220.4805,72.52677,220.3665,73.10294L223.2083,73.10294Q223.2083,72.54305,222.8437,72.2338Q222.4792,71.92456,221.89,71.92456ZM229.73180000000002,71.21167L229.73180000000002,76.0587Q229.73180000000002,77.5626,229.0091,78.1876Q228.2865,78.8158,227.2904,78.8158Q226.5124,78.8158,225.9069,78.4838Q225.3047,78.155,225.0866,77.5561L225.7832,77.1785Q226.1706,77.9988,227.2806,77.9988Q228,77.9988,228.4167,77.5658Q228.8333,77.1329,228.8333,76.0391L228.8333,75.5964Q228.5469,76.0652,228.1042,76.2963Q227.6615,76.52420000000001,227.15359999999998,76.52420000000001Q226.5677,76.52420000000001,226.0436,76.2019Q225.5228,75.8764,225.19729999999998,75.2611Q224.875,74.64591,224.875,73.81583Q224.875,72.98576,225.19400000000002,72.36727Q225.513,71.74552,226.0404,71.42651000000001Q226.5677,71.1075,227.15359999999998,71.1075Q227.6712,71.1075,228.1302,71.35815Q228.5924,71.6088,228.8724,72.10359Q228.9245,71.62833,228.9245,71.21167L229.73180000000002,71.21167ZM227.2611,75.7071Q227.9023,75.7071,228.3678,75.2514Q228.8333,74.7924,228.8333,73.80932Q228.8333,72.83602,228.3678,72.38029Q227.9023,71.92456,227.2611,71.92456Q226.5872,71.92456,226.1803,72.4226Q225.7734,72.9174,225.7734,73.80932Q225.7734,74.71102,226.1803,75.2091Q226.5872,75.7071,227.2611,75.7071ZM233.5599,71.1075Q233.80079999999998,71.1075,234.0059,71.16935Q234.21089999999998,71.2312,234.34109999999998,71.3256L234.0319,72.045Q233.83010000000002,71.92456,233.5501,71.92456Q232.9707,71.92456,232.5996,72.39982Q232.23180000000002,72.87182,232.23180000000002,73.77677L232.23180000000002,76.42L231.3333,76.42L231.3333,71.21167L232.1406,71.21167Q232.1406,71.72925000000001,232.1927,72.09383Q232.6354,71.1075,233.5599,71.1075ZM236.90949999999998,71.1075Q237.7852,71.1075,238.3418,71.64461Q238.89839999999998,72.17846,238.89839999999998,73.16805L238.89839999999998,76.42L238.0814,76.42Q238.0814,75.8373,238.0814,75.668Q237.8438,76.0912,237.4434,76.30930000000001Q237.043,76.52420000000001,236.52859999999998,76.52420000000001Q236.0371,76.52420000000001,235.60739999999998,76.3321Q235.17770000000002,76.1401,234.92059999999998,75.75919999999999Q234.6667,75.3751,234.6667,74.84121999999999Q234.6667,74.03393,235.27859999999998,73.56844Q235.8939,73.10294,236.8639,73.10294Q237.41410000000002,73.10294,238,73.27871999999999L238,73.19734Q238,72.55281,237.7135,72.24031Q237.4271,71.92456,236.8477,71.92456Q236.3789,71.92456,236.0697,72.09383Q235.7604,72.2631,235.54559999999998,72.59839L234.888,72.28263Q235.1289,71.74552,235.66930000000002,71.42651000000001Q236.2129,71.1075,236.90949999999998,71.1075ZM238,74.07625Q237.3913,73.92,236.88670000000002,73.92Q236.252,73.92,235.9069,74.16414Q235.5651,74.40503,235.5651,74.84448Q235.5651,75.2481,235.8548,75.4792Q236.14780000000002,75.7071,236.61329999999998,75.7071Q237.18619999999999,75.7071,237.5931,75.37180000000001Q238,75.0365,238,74.44409L238,74.07625ZM243.2604,76.2442Q242.8535,76.52420000000001,242.23180000000002,76.52420000000001Q240.7083,76.52420000000001,240.7083,74.7631L240.7083,72.02871999999999L239.875,72.02871999999999L239.875,71.21167L240.7083,71.21167L240.7083,69.64917L241.60680000000002,69.64917L241.60680000000002,71.21167L243,71.21167L243,72.02871999999999L241.60680000000002,72.02871999999999L241.60680000000002,74.64266Q241.60680000000002,75.7071,242.362,75.7071Q242.69400000000002,75.7071,242.9805,75.5313L243.2604,76.2442ZM244.5592,70.17Q244.3444,70.17,244.1914,69.9812Q244.0417,69.7924,244.0417,69.545Q244.0417,69.2976,244.1914,69.1088Q244.3444,68.92,244.5592,68.92Q244.7773,68.92,244.9303,69.10555Q245.0833,69.28784,245.0833,69.545Q245.0833,69.7924,244.9238,69.9812Q244.76760000000002,70.17,244.5592,70.17ZM245.0833,76.42L244.1849,76.42L244.1849,71.21167L245.0833,71.21167L245.0833,76.42ZM246.125,73.81583Q246.125,73.03784,246.47,72.41935Q246.8184,71.7976,247.3913,71.45255Q247.9674,71.1075,248.63150000000002,71.1075Q249.29559999999998,71.1075,249.86849999999998,71.4493Q250.4414,71.78784,250.7832,72.40958Q251.125,73.02807,251.125,73.81583Q251.125,74.60685,250.7832,75.2221Q250.4414,75.8341,249.86849999999998,76.1791Q249.29559999999998,76.52420000000001,248.63150000000002,76.52420000000001Q247.9674,76.52420000000001,247.388,76.1791Q246.8086,75.8341,246.4668,75.2221Q246.125,74.60685,246.125,73.81583ZM247.02339999999998,73.81583Q247.02339999999998,74.39852,247.235,74.82495Q247.4466,75.2514,247.81119999999999,75.4792Q248.17579999999998,75.7071,248.6283,75.7071Q249.084,75.7071,249.4486,75.4792Q249.81310000000002,75.2514,250.01819999999998,74.82495Q250.22660000000002,74.39852,250.22660000000002,73.81583Q250.22660000000002,73.23315,250.01819999999998,72.80996999999999Q249.81310000000002,72.38354,249.4486,72.15568Q249.084,71.92456,248.6283,71.92456Q248.17579999999998,71.92456,247.81119999999999,72.15568Q247.4466,72.38354,247.235,72.80996999999999Q247.02339999999998,73.23315,247.02339999999998,73.81583ZM254.9303,71.1075Q255.7539,71.1075,256.252,71.65763Q256.75,72.20776000000001,256.75,73.21688L256.75,76.42L255.85160000000002,76.42L255.85160000000002,73.46102Q255.85160000000002,72.72208,255.5618,72.32495Q255.2721,71.92456,254.70569999999998,71.92456Q254.3379,71.92456,254.0091,72.10034Q253.6836,72.27286,253.4785,72.61792Q253.27339999999998,72.96297,253.27339999999998,73.47078L253.27339999999998,76.42L252.375,76.42L252.375,71.21167L253.1823,71.21167Q253.1823,71.72599,253.2344,72.09383Q253.4948,71.6088,253.9375,71.35815Q254.3802,71.1075,254.9303,71.1075Z" fill="#FFFFFF" fill-opacity="1"/></g></g></g></g></g><g style="mix-blend-mode:passthrough"><g><g style="mix-blend-mode:passthrough"><path d="M53.27684304809571,180.60330200195312C53.27684304809571,180.60330200195312,170.0128430480957,180.60330200195312,170.0128430480957,180.60330200195312C170.0128430480957,180.60330200195312,126.23684304809571,569.7233020019531,126.23684304809571,569.7233020019531C126.23684304809571,569.7233020019531,9.500843048095703,569.7233020019531,9.500843048095703,569.7233020019531C9.500843048095703,569.7233020019531,53.27684304809571,180.60330200195312,53.27684304809571,180.60330200195312C53.27684304809571,180.60330200195312,53.27684304809571,180.60330200195312,53.27684304809571,180.60330200195312ZM242.9728430480957,180.60330200195312C242.9728430480957,180.60330200195312,359.70884304809573,180.60330200195312,359.70884304809573,180.60330200195312C359.70884304809573,180.60330200195312,315.9328430480957,569.7233020019531,315.9328430480957,569.7233020019531C315.9328430480957,569.7233020019531,199.1968430480957,569.7233020019531,199.1968430480957,569.7233020019531C199.1968430480957,569.7233020019531,242.9728430480957,180.60330200195312,242.9728430480957,180.60330200195312C242.9728430480957,180.60330200195312,242.9728430480957,180.60330200195312,242.9728430480957,180.60330200195312ZM432.6688430480957,180.60330200195312C432.6688430480957,180.60330200195312,549.4048430480957,180.60330200195312,549.4048430480957,180.60330200195312C549.4048430480957,180.60330200195312,505.6288430480957,569.7233020019531,505.6288430480957,569.7233020019531C505.6288430480957,569.7233020019531,388.8928430480957,569.7233020019531,388.8928430480957,569.7233020019531C388.8928430480957,569.7233020019531,432.6688430480957,180.60330200195312,432.6688430480957,180.60330200195312C432.6688430480957,180.60330200195312,432.6688430480957,180.60330200195312,432.6688430480957,180.60330200195312Z" fill="#FFFFFF" fill-opacity="1"/></g><g style="mix-blend-mode:passthrough"><path d="M58.14364242553711,180.60330200195312C58.14364242553711,180.60330200195312,286.7516424255371,180.60330200195312,286.7516424255371,180.60330200195312C286.7516424255371,180.60330200195312,286.7516424255371,297.3393020019531,286.7516424255371,297.3393020019531C286.7516424255371,297.3393020019531,58.14364242553711,297.3393020019531,58.14364242553711,297.3393020019531C58.14364242553711,297.3393020019531,58.14364242553711,180.60330200195312,58.14364242553711,180.60330200195312C58.14364242553711,180.60330200195312,58.14364242553711,180.60330200195312,58.14364242553711,180.60330200195312ZM242.9756424255371,452.98730200195314C242.9756424255371,452.98730200195314,471.5836424255371,452.98730200195314,471.5836424255371,452.98730200195314C471.5836424255371,452.98730200195314,471.5836424255371,569.7233020019531,471.5836424255371,569.7233020019531C471.5836424255371,569.7233020019531,242.9756424255371,569.7233020019531,242.9756424255371,569.7233020019531C242.9756424255371,569.7233020019531,242.9756424255371,452.98730200195314,242.9756424255371,452.98730200195314C242.9756424255371,452.98730200195314,242.9756424255371,452.98730200195314,242.9756424255371,452.98730200195314Z" fill="#FFFFFF" fill-opacity="1"/></g><g style="mix-blend-mode:passthrough"><path d="M58.14364242553712,78.4592720336914C58.14364242553713,95.22947203369141,64.8055624255371,111.3127720336914,76.66384242553711,123.17127203369141C88.52214242553711,135.02927203369143,104.6054424255371,141.6912720336914,121.37564242553711,141.6912720336914C138.14584242553713,141.6912720336914,154.2291424255371,135.02927203369143,166.08764242553713,123.17127203369141C177.94564242553713,111.3127720336914,184.6076424255371,95.22947203369141,184.6076424255371,78.4592720336914C184.6076424255371,70.15547203369141,182.9716424255371,61.93307203369141,179.79464242553712,54.261472033691405C176.61664242553712,46.5897720336914,171.9586424255371,39.619172033691406,166.08764242553713,33.74747203369141C160.2156424255371,27.875872033691408,153.2451424255371,23.218222033691404,145.5734424255371,20.040522033691406C137.9018424255371,16.862812033691405,129.67934242553713,15.227272033691413,121.37564242553711,15.227272033691406C113.07184242553711,15.227272033691408,104.84944242553712,16.862812033691405,97.17784242553711,20.040522033691406C89.5061424255371,23.218222033691404,82.5355424255371,27.875872033691408,76.66384242553711,33.74747203369141C70.79224242553711,39.619172033691406,66.13460242553711,46.5897720336914,62.956892425537106,54.261472033691405C59.77919242553711,61.93307203369141,58.14364225054911,70.15547203369141,58.14364242553712,78.4592720336914C58.14364242553712,78.4592720336914,58.14364242553712,78.4592720336914,58.14364242553712,78.4592720336914C58.14364242553712,78.4592720336914,58.14364242553712,78.4592720336914,58.14364242553712,78.4592720336914Z" fill="#FFFFFF" fill-opacity="1"/></g></g></g><g style="mix-blend-mode:passthrough"><g><g style="mix-blend-mode:passthrough"><path d="M132.45312,591.8053L138.3333,591.8053L138.3333,598.8053L136.3333,598.8053L136.3333,598.1387L129.49479,598.1387L129.49479,598.821L127.51042,598.821L127.51042,592.0918Q126.91667,592.3783,126.3125,592.6387L125.479167,591.222Q126.70833,590.7272,127.45833,590.1803Q128.21354,589.63346,128.58333,588.93033L125.671875,588.93033L125.671875,587.472L126.90104,587.472L125.65625,586.6595Q126.83854,585.33658,127.44792,583.88867L129.14062,584.19075Q129.01562,584.57617,128.77604,585.03971L133,585.03971L133,586.52929L130.86979,586.52929L130.80729,587.37825L130.80729,587.472L133.33333,587.472L133.33333,588.93033L130.55208,588.93033L130.55208,588.96679Q132.18229,589.81054,133.36458,590.5605L132.45312,591.8053ZM133.89062,591.1335L133.89062,584.97721L139.5052,584.97721L139.5052,591.1335L133.89062,591.1335ZM129.01562,587.472L129.01562,587.44596Q129.04688,587.23763,129.07812,586.52929L127.91146,586.52929Q127.67188,586.87304,127.15625,587.472L129.01562,587.472ZM135.6667,589.472L137.7396,589.472L137.7396,586.57617L135.6667,586.57617L135.6667,589.472ZM129.89583,590.4772Q129.28646,591.1908,128.05208,591.8053L132.35938,591.8053Q131.57292,591.3314,129.89583,590.4772ZM129.49479,594.4147L136.3333,594.4147L136.3333,593.2949L129.49479,593.2949L129.49479,594.4147ZM129.49479,595.8053L129.49479,596.6335L136.3333,596.6335L136.3333,595.8053L129.49479,595.8053ZM144.849,590.1387L144.849,589.472L142,589.472L142,588.35221L144.849,588.35221L144.849,587.80533L142.6562,587.80533L142.6562,586.77929L144.849,586.77929L144.849,585.972L142.3542,585.972L142.3542,584.80533L144.849,584.80533L144.849,584.08658L146.625,584.08658L146.625,584.80533L148.8177,584.80533L148.8177,585.972L146.625,585.972L146.625,586.77929L148.6875,586.77929L148.6875,587.80533L146.625,587.80533L146.625,588.35221L148.8802,588.35221L148.8802,589.472L146.625,589.472L146.625,590.1387L151.6042,590.1387L151.6042,589.472L149.2865,589.472L149.2865,588.35221L151.6042,588.35221L151.6042,587.80533L149.4948,587.80533L149.4948,586.77929L151.6042,586.77929L151.6042,585.972L149.3333,585.972L149.3333,584.80533L151.6042,584.80533L151.6042,584.07096L153.3021,584.07096L153.3021,584.80533L155.8802,584.80533L155.8802,585.972L153.3021,585.972L153.3021,586.77929L155.5938,586.77929L155.5938,587.80533L153.3021,587.80533L153.3021,588.35221L156.1979,588.35221L156.1979,589.472L153.3021,589.472L153.3021,590.1387L154.9531,590.1387L154.9531,594.6699L149.5573,594.6699Q150.3281,595.4355,150.8854,596.0397L149.7031,597.0241Q149.4167,596.696,148.9219,596.2324Q148.4271,595.7637,148.0781,595.4512L148.8646,594.6699L142.8646,594.6699L142.8646,593.472L153.1771,593.472L153.1771,592.8053L143.4062,592.8053L143.4062,591.8314L153.1771,591.8314L153.1771,591.3053L143.0885,591.3053L143.0885,590.1387L144.849,590.1387ZM154.6927,595.0137Q155.5885,596.347,156.3906,597.7585L154.8385,598.5866Q154.5365,597.9616,154.0781,597.1855Q153.6198,596.4043,153.5104,596.2116L153.224,595.7324L154.6927,595.0137ZM141.6823,597.9043Q142.1146,597.3262,142.526,596.5553Q142.9427,595.7845,143.1667,595.1543L144.8177,595.7741Q144.5312,596.4824,144.0938,597.2793Q143.6615,598.0762,143.2292,598.7376L141.6823,597.9043ZM151.4167,595.5449L153.1146,595.9772L153.0521,596.5918Q153.0208,597.0449,152.9896,597.2012Q152.9062,597.8314,152.6875,598.1543Q152.474,598.4772,152.0365,598.623Q151.6042,598.7689,150.8073,598.821Q150.0521,598.8053,149.1094,598.8053Q148.1771,598.8053,147.4115,598.821Q146.5938,598.7689,146.1823,598.6074Q145.7708,598.4512,145.5938,598.0658Q145.4219,597.6855,145.4219,596.9303L145.4219,595.2533L147.25,595.2533L147.25,596.5762Q147.25,596.9772,147.4219,597.123Q147.599,597.2689,148.0833,597.3001Q148.8542,597.3314,149.224,597.3314Q149.6042,597.3314,150.3438,597.3001Q150.901,597.2533,151.1094,597.123Q151.3177,596.9928,151.349,596.6074L151.4167,595.5449ZM169.5104,594.0397Q170.6302,595.5137,172.5833,597.0397L171.401,598.8053Q169.5781,597.3835,168.3594,595.8105Q167.2083,597.2637,165.2188,598.8991L163.9115,597.2845Q166.1302,595.6491,167.2708,594.1387Q166.4896,592.6908,166.0729,591.0814Q165.9115,591.3366,165.5625,591.8522L164.5,590.248L164.7448,589.85221L163.099,589.85221Q162.7604,590.2533,162.375,590.6647L164.6458,590.6647L164.6458,592.123L162.7135,593.7637L162.7135,593.9408L165.3542,593.6126L165.4323,595.2064L162.7135,595.5345L162.7135,596.9772Q162.7135,598.0137,162.3438,598.4095Q161.974,598.8053,160.9844,598.8053Q160.151,598.8053,159.3229,598.7116L158.9531,596.9772Q159.6406,597.1074,160.2656,597.1074Q160.6667,597.1074,160.8021,596.946Q160.9375,596.7793,160.9375,596.2897L160.9375,595.7637L158.0885,596.1387L157.9115,594.5345L160.9375,594.1699L160.9375,593.3835L162.2969,592.1387L160.8594,592.1387Q159.8229,593.0762,158.375,594.123L157.3854,592.6126Q158.0729,592.1595,158.3125,591.9772L158.3125,590.6647L159.9583,590.6647L160.8073,589.85221L157.7031,589.85221L157.7031,588.18554L160.2135,588.18554L160.2135,587.13867L158.3125,587.13867L158.3125,585.53971L160.2135,585.53971L160.2135,584.06575L161.8802,584.06575L161.8802,585.53971L163.3854,585.53971L163.3854,586.57617Q163.9375,585.69596,164.4375,584.69075L165.9271,585.41992Q165.1719,586.95117,164.3281,588.18554L165,588.18554L165,589.38867Q165.6302,588.19075,166.1875,586.6595Q166.7448,585.12825,166.9219,584.05013L168.7917,584.22721Q168.5521,585.20638,168.2188,586.27408L172.3125,586.27408L172.3125,588.04492L171.3021,588.04492Q171.0625,589.89388,170.6302,591.3522Q170.1979,592.8105,169.5104,594.0397ZM161.8802,587.13867L161.8802,588.18554L162.2656,588.18554Q162.7135,587.62304,163.0312,587.13867L161.8802,587.13867ZM167.3229,588.71679Q167.6615,590.7168,168.4115,592.222Q169.1302,590.6387,169.4948,588.04492L167.5938,588.04492Q167.5104,588.26888,167.3229,588.71679ZM175.9896,588.472L175.9896,590.4043L174.0677,590.4043L174.0677,586.62825L176.4688,586.62825Q176.1615,586.07096,175.7188,585.33658L175.3177,584.62825L177.0781,583.89388Q177.1771,584.08658,177.75,585.04492L178.3438,586.08658L176.9531,586.62825L180.3646,586.62825Q180.2396,586.32617,179.7917,585.39908Q179.4375,584.69596,179.3229,584.44075L181.0312,583.74804Q181.9115,585.38346,182.25,586.08658L180.6354,586.62825L183.2083,586.62825Q184.3438,584.90429,184.8542,583.847L186.776,584.64388Q186.776,584.64388,185.7188,586.23242L185.4479,586.62825L187.9479,586.62825L187.9479,590.4043L186.0885,590.4043L186.0885,588.472L175.9896,588.472ZM188.0104,593.1387L188.0104,594.9147L182.3125,594.9147L182.3125,596.6022Q182.3125,597.8418,181.7812,598.321Q181.2552,598.8053,179.9427,598.8053Q178.9219,598.8053,177.9115,598.6595L177.4948,596.821Q178.5208,597.0137,179.4948,597.0137Q179.9115,597.0137,180.0729,596.8053Q180.2344,596.5918,180.2344,596.0449L180.2344,594.9147L173.974,594.9147L173.974,593.1387L180.2344,593.1387L180.2344,592.6074L182.5052,591.472L176.599,591.472L176.599,589.72721L185.4792,589.72721L185.4792,591.4512L182.4427,593.1387L188.0104,593.1387ZM202.0469,595.4824Q202.9427,596.3574,204.4479,597.2689L203.4062,598.8053Q201.901,597.8418,200.9583,596.8939Q200.0781,597.847,198.7812,598.8053L198.0156,597.7012L198.0156,598.8053L196.3333,598.8053L196.3333,584.66471L203.5833,584.66471Q203.5521,585.95117,203.4219,587.597Q203.3594,588.36263,203.1562,588.74283Q202.9583,589.12304,202.5104,589.27408Q202.0625,589.42513,201.1667,589.42513Q200.3646,589.42513,199.2135,589.31054L198.8802,587.66471Q199.7917,587.80533,200.7188,587.80533Q201.1979,587.80533,201.375,587.68033Q201.5521,587.55533,201.599,587.23242Q201.6458,587.0345,201.6771,586.472L198.0156,586.472L198.0156,590.1387L203.7135,590.1387L203.7135,591.7845Q203.1823,593.821,202.0469,595.4824ZM190.3333,584.68033L195.3333,584.68033L195.3333,597.0397Q195.3333,597.9876,194.9688,598.3939Q194.6094,598.8053,193.7135,598.8053Q192.9844,598.8053,192.3698,598.7064L192.0156,596.9616Q192.5833,597.0605,193.2083,597.0605Q193.4792,597.0605,193.5729,596.9043Q193.6719,596.7428,193.6719,596.3626L193.6719,593.821L191.9688,593.821Q191.7604,596.597,190.8802,598.8366L189.2969,598.071Q189.7083,597.1126,189.9062,596.3835Q190.1094,595.6491,190.2188,594.3939Q190.3333,593.1335,190.3333,590.9043L190.3333,584.68033ZM193.6719,588.47721L193.6719,586.45638L192.0469,586.45638L192.0469,588.47721L193.6719,588.47721ZM192.0469,592.1387L193.6719,592.1387L193.6719,590.2533L192.0469,590.2533L192.0469,591.6074L192.0469,592.1387ZM198.0156,597.1908Q199.0885,596.446,199.8854,595.5501Q198.8333,594.0918,198.1094,591.7741L198.0156,591.7741L198.0156,597.1908ZM200.9271,594.1178Q201.5677,593.1178,202,591.7741L199.7917,591.7741Q200.2552,593.1751,200.9271,594.1178ZM215.099,589.35742Q217.0156,589.98242,220.3281,590.5241L219.849,592.3887Q217.6406,591.9668,215.9844,591.4928Q214.3281,591.0137,213,590.4095Q210.2344,591.6074,206.2188,592.597L205.5938,590.722Q208.6823,590.1022,211,589.28971Q209.9427,588.597,208.9688,587.69075Q208.0573,588.55013,206.875,589.38867L205.8177,588.00325Q207,587.18033,208.1615,586.00846Q209.3229,584.83658,209.9948,583.82617L211.8802,584.30533Q211.3542,585.05533,211.2917,585.13867L218.7292,585.13867L218.7292,586.722Q216.9844,588.28971,215.099,589.35742ZM210.4896,586.73763Q211.5312,587.75325,212.9844,588.49804Q214.7917,587.67513,215.9115,586.73763L210.4896,586.73763ZM212.9219,591.4147L212.7448,592.7897L218.8229,592.7897Q218.7135,594.9876,218.2969,596.9512Q218.1042,597.8887,217.5833,598.347Q217.0677,598.8053,215.9115,598.8053Q214.5885,598.8053,212.9427,598.6439L212.5885,596.9824Q214.0938,597.1699,215.2552,597.1699Q215.7708,597.1699,216.0104,596.9772Q216.25,596.7845,216.3906,596.2637Q216.6146,595.4564,216.7135,594.472L212.3802,594.472Q212.0469,595.498,211.3958,596.248Q210.75,596.998,209.6979,597.6335Q208.651,598.2689,206.9688,598.9824L205.8802,597.3939Q207.849,596.6751,208.8542,596.0189Q209.8646,595.3626,210.3125,594.472L207,594.472L207,592.7897L210.7604,592.7897Q210.8906,592.0397,210.9219,591.3991L212.9219,591.4147ZM229.844,591.8835L236,591.8835L236,593.8053L229.844,593.8053L229.844,598.8053L227.85899999999998,598.8053L227.85899999999998,593.8053L221.6667,593.8053L221.6667,591.8835L227.85899999999998,591.8835L227.85899999999998,586.472L222.3229,586.472L222.3229,584.57096L235.35899999999998,584.57096L235.35899999999998,586.472L229.844,586.472L229.844,591.8835ZM230.833,590.2637Q231.411,589.6595,232.10399999999998,588.722Q232.80200000000002,587.77929,233.281,587.03971L234.833,588.0345Q234.401,588.68033,233.656,589.66992Q232.911,590.6595,232.37,591.2845L230.833,590.2637ZM224.375,587.05533Q224.9323,587.72721,225.661,588.68033Q226.39100000000002,589.62825,226.87,590.321L225.333,591.347Q224.8698,590.6178,224.151,589.67513Q223.4323,588.72721,222.8854,588.08138L224.375,587.05533ZM247.99,585.35221Q249.01600000000002,586.43554,250.23399999999998,587.80533Q251.453,589.17513,252.188,590.1178L250.76600000000002,591.222Q250.42700000000002,590.7845,249.833,590.0866Q248.328,590.196,245.01600000000002,590.3887L240.115,590.7116Q239.60399999999998,590.7428,238.60899999999998,590.8522L238.099,588.9095Q238.656,588.79492,238.92700000000002,588.70117Q239.203,588.60221,239.458,588.4095Q240.26,587.82096,241.531,586.32617Q242.80200000000002,584.83138,243.589,583.59179L245.333,584.58138Q244.578,585.66992,243.599,586.847Q242.625,588.02408,241.844,588.80533L248.38,588.35742Q247.224,587.04492,246.63,586.40429L247.99,585.35221ZM241.297,598.8053L239.333,598.8053L239.333,591.5866L250.635,591.5866L250.635,598.8053L248.667,598.8053L248.667,598.1387L241.297,598.1387L241.297,598.8053ZM248.667,596.2637L248.667,593.472L241.297,593.472L241.297,596.2637L248.667,596.2637Z" fill="#F5F7FA" fill-opacity="1"/></g><g style="mix-blend-mode:passthrough"><path d="M141.708333,609.92L147.125,609.92L147.125,610.73706L144.89844,610.73706L144.89844,617.42L144,617.42L144,610.73706L141.708333,610.73706L141.708333,609.92ZM150.19466,612.1075Q150.85872,612.1075,151.36003,612.41675Q151.8613,612.72273,152.1283,613.25008Q152.3984,613.77742,152.3984,614.42521Q152.3984,614.69539,152.3594,614.92L148.64844,614.92Q148.64844,615.82169,149.11719,616.2644Q149.58594,616.7071,150.30208,616.7071Q151.1875,616.7071,151.5846,615.99747L152.2064,616.3718Q152.0046,616.922,151.46094,617.2247Q150.92057,617.5242,150.25651,617.5242Q149.5599,617.5242,148.98698,617.2052Q148.41732,616.8861,148.08203,616.2709Q147.75,615.65568,147.75,614.7963Q147.75,613.96622,148.08203,613.3575Q148.41732,612.74552,148.9707,612.42651Q149.52734,612.1075,150.19466,612.1075ZM150.18164,612.92456Q149.61198,612.92456,149.19206,613.22729Q148.77213,613.52677,148.6582,614.10294L151.5,614.10294Q151.5,613.54305,151.13542,613.2338Q150.77083,612.92456,150.18164,612.92456ZM155.4095,612.1075Q156.2852,612.1075,156.8418,612.6446100000001Q157.3984,613.17846,157.3984,614.16805L157.3984,617.42L156.5814,617.42Q156.5814,616.8373,156.5814,616.668Q156.3438,617.0912,155.9434,617.3093Q155.543,617.5242,155.0286,617.5242Q154.5371,617.5242,154.1074,617.3321Q153.6777,617.1401,153.4206,616.7592Q153.1667,616.3751,153.1667,615.84122Q153.1667,615.03393,153.7786,614.56844Q154.3939,614.10294,155.3639,614.10294Q155.9141,614.10294,156.5,614.27872L156.5,614.19734Q156.5,613.55281,156.2135,613.24031Q155.9271,612.92456,155.3477,612.92456Q154.8789,612.92456,154.5697,613.09383Q154.2604,613.2631,154.0456,613.59839L153.388,613.28263Q153.6289,612.74552,154.1693,612.42651Q154.7129,612.1075,155.4095,612.1075ZM156.5,615.07625Q155.8913,614.92,155.3867,614.92Q154.752,614.92,154.4069,615.16414Q154.0651,615.40503,154.0651,615.84448Q154.0651,616.2481,154.3548,616.4792Q154.6478,616.7071,155.1133,616.7071Q155.68619999999999,616.7071,156.0931,616.3718Q156.5,616.0365,156.5,615.44409L156.5,615.07625ZM161.0605,616.7071Q161.82229999999998,616.7071,162.252,616.0333L162.9225,616.4207Q162.64260000000002,616.9773,162.1673,617.2507Q161.6921,617.5242,161.08010000000002,617.5242Q160.3835,617.5242,159.81380000000001,617.1856Q159.2441,616.8438,158.9121,616.2318Q158.5833,615.61661,158.5833,614.81583Q158.5833,614.01505,158.9121,613.40307Q159.2441,612.78784,159.81380000000001,612.4493Q160.3835,612.1075,161.08010000000002,612.1075Q161.6921,612.1075,162.1673,612.38094Q162.64260000000002,612.65438,162.9225,613.21102L162.252,613.59839Q161.82229999999998,612.92456,161.0605,612.92456Q160.3607,612.92456,159.9212,613.42911Q159.4818,613.93367,159.4818,614.81583Q159.4818,615.698,159.9212,616.2026Q160.3607,616.7071,161.0605,616.7071ZM166.3437,612.1075Q167.1478,612.1075,167.6556,612.65763Q168.1667,613.20776,168.1667,614.21688L168.1667,617.42L167.2682,617.42L167.2682,614.46102Q167.2682,613.72208,166.9785,613.32495Q166.68880000000001,612.92456,166.1224,612.92456Q165.7546,612.92456,165.4258,613.10034Q165.1003,613.27286,164.8952,613.61792Q164.6901,613.96297,164.6901,614.47078L164.6901,617.42L163.7917,617.42L163.7917,609.71167L164.6901,609.71167L164.6901,613.0157Q164.9603,612.56974,165.3867,612.33862Q165.8164,612.1075,166.3437,612.1075ZM169.9342,611.17Q169.7194,611.17,169.5664,610.9812Q169.4167,610.7924,169.4167,610.545Q169.4167,610.2976,169.5664,610.1088Q169.7194,609.92,169.9342,609.92Q170.1523,609.92,170.3053,610.10555Q170.4583,610.28784,170.4583,610.545Q170.4583,610.7924,170.2988,610.9812Q170.14260000000002,611.17,169.9342,611.17ZM170.4583,617.42L169.5599,617.42L169.5599,612.21167L170.4583,612.21167L170.4583,617.42ZM174.472,612.1075Q175.2956,612.1075,175.7936,612.65763Q176.2917,613.20776,176.2917,614.21688L176.2917,617.42L175.3932,617.42L175.3932,614.46102Q175.3932,613.72208,175.1035,613.32495Q174.81380000000001,612.92456,174.2474,612.92456Q173.8796,612.92456,173.5508,613.10034Q173.2253,613.27286,173.0202,613.61792Q172.8151,613.96297,172.8151,614.47078L172.8151,617.42L171.9167,617.42L171.9167,612.21167L172.724,612.21167Q172.724,612.72599,172.776,613.09383Q173.0365,612.6088,173.4792,612.35815Q173.9219,612.1075,174.472,612.1075ZM182.1901,612.21167L182.1901,617.0587Q182.1901,618.5626,181.4674,619.1876Q180.7448,619.8158,179.74869999999999,619.8158Q178.9707,619.8158,178.36520000000002,619.4838Q177.763,619.155,177.54489999999998,618.5561L178.2415,618.1785Q178.6289,618.9988,179.7389,618.9988Q180.4583,618.9988,180.875,618.5658Q181.2917,618.1329,181.2917,617.0391L181.2917,616.5964Q181.0052,617.0652,180.5625,617.2963Q180.1198,617.5242,179.612,617.5242Q179.026,617.5242,178.5019,617.2019Q177.9811,616.8764,177.6556,616.2611Q177.3333,615.64591,177.3333,614.81583Q177.3333,613.98576,177.6523,613.36727Q177.97140000000002,612.74552,178.49869999999999,612.42651Q179.026,612.1075,179.612,612.1075Q180.1296,612.1075,180.5885,612.35815Q181.0508,612.6088,181.3307,613.10359Q181.3828,612.62833,181.3828,612.21167L182.1901,612.21167ZM179.7194,616.7071Q180.3607,616.7071,180.8262,616.2514Q181.2917,615.7924,181.2917,614.80932Q181.2917,613.83602,180.8262,613.38029Q180.3607,612.92456,179.7194,612.92456Q179.0456,612.92456,178.6387,613.4226Q178.2318,613.9174,178.2318,614.80932Q178.2318,615.71102,178.6387,616.2091Q179.0456,616.7071,179.7194,616.7071ZM186.8092,611.17Q186.5944,611.17,186.4414,610.9812Q186.2917,610.7924,186.2917,610.545Q186.2917,610.2976,186.4414,610.1088Q186.5944,609.92,186.8092,609.92Q187.0273,609.92,187.1803,610.10555Q187.3333,610.28784,187.3333,610.545Q187.3333,610.7924,187.1738,610.9812Q187.01760000000002,611.17,186.8092,611.17ZM187.3333,617.42L186.4349,617.42L186.4349,612.21167L187.3333,612.21167L187.3333,617.42ZM191.347,612.1075Q192.1706,612.1075,192.6686,612.65763Q193.1667,613.20776,193.1667,614.21688L193.1667,617.42L192.2682,617.42L192.2682,614.46102Q192.2682,613.72208,191.9785,613.32495Q191.68880000000001,612.92456,191.1224,612.92456Q190.7546,612.92456,190.4258,613.10034Q190.1003,613.27286,189.8952,613.61792Q189.6901,613.96297,189.6901,614.47078L189.6901,617.42L188.7917,617.42L188.7917,612.21167L189.599,612.21167Q189.599,612.72599,189.651,613.09383Q189.9115,612.6088,190.3542,612.35815Q190.7969,612.1075,191.347,612.1075ZM197.3854,617.2442Q196.9785,617.5242,196.3568,617.5242Q194.8333,617.5242,194.8333,615.7631L194.8333,613.02872L194,613.02872L194,612.21167L194.8333,612.21167L194.8333,610.64917L195.7318,610.64917L195.7318,612.21167L197.125,612.21167L197.125,613.02872L195.7318,613.02872L195.7318,615.64266Q195.7318,616.7071,196.487,616.7071Q196.81900000000002,616.7071,197.1055,616.5313L197.3854,617.2442ZM200.403,612.1075Q201.0671,612.1075,201.5684,612.41675Q202.0697,612.72273,202.3366,613.25008Q202.6068,613.77742,202.6068,614.42521Q202.6068,614.69539,202.5677,614.92L198.8568,614.92Q198.8568,615.82169,199.3255,616.2644Q199.7943,616.7071,200.5104,616.7071Q201.3958,616.7071,201.793,615.99747L202.4147,616.3718Q202.2129,616.922,201.6693,617.2247Q201.1289,617.5242,200.4648,617.5242Q199.7682,617.5242,199.1953,617.2052Q198.6256,616.8861,198.2904,616.2709Q197.9583,615.65568,197.9583,614.7963Q197.9583,613.96622,198.2904,613.3575Q198.6256,612.74552,199.179,612.42651Q199.7357,612.1075,200.403,612.1075ZM200.39,612.92456Q199.8203,612.92456,199.4004,613.22729Q198.9805,613.52677,198.8665,614.10294L201.7083,614.10294Q201.7083,613.54305,201.3437,613.2338Q200.9792,612.92456,200.39,612.92456ZM208.23180000000002,612.21167L208.23180000000002,617.0587Q208.23180000000002,618.5626,207.5091,619.1876Q206.7865,619.8158,205.7904,619.8158Q205.0124,619.8158,204.4069,619.4838Q203.8047,619.155,203.5866,618.5561L204.2832,618.1785Q204.6706,618.9988,205.7806,618.9988Q206.5,618.9988,206.9167,618.5658Q207.3333,618.1329,207.3333,617.0391L207.3333,616.5964Q207.0469,617.0652,206.6042,617.2963Q206.1615,617.5242,205.65359999999998,617.5242Q205.0677,617.5242,204.5436,617.2019Q204.0228,616.8764,203.69729999999998,616.2611Q203.375,615.64591,203.375,614.81583Q203.375,613.98576,203.69400000000002,613.36727Q204.013,612.74552,204.5404,612.42651Q205.0677,612.1075,205.65359999999998,612.1075Q206.1712,612.1075,206.6302,612.35815Q207.0924,612.6088,207.3724,613.10359Q207.4245,612.62833,207.4245,612.21167L208.23180000000002,612.21167ZM205.7611,616.7071Q206.4023,616.7071,206.8678,616.2514Q207.3333,615.7924,207.3333,614.80932Q207.3333,613.83602,206.8678,613.38029Q206.4023,612.92456,205.7611,612.92456Q205.0872,612.92456,204.6803,613.4226Q204.2734,613.9174,204.2734,614.80932Q204.2734,615.71102,204.6803,616.2091Q205.0872,616.7071,205.7611,616.7071ZM212.0599,612.1075Q212.30079999999998,612.1075,212.5059,612.16935Q212.71089999999998,612.2312,212.84109999999998,612.3256L212.5319,613.045Q212.33010000000002,612.92456,212.0501,612.92456Q211.4707,612.92456,211.0996,613.39982Q210.73180000000002,613.87182,210.73180000000002,614.77677L210.73180000000002,617.42L209.8333,617.42L209.8333,612.21167L210.6406,612.21167Q210.6406,612.72925,210.6927,613.09383Q211.1354,612.1075,212.0599,612.1075ZM215.40949999999998,612.1075Q216.2852,612.1075,216.8418,612.6446100000001Q217.39839999999998,613.17846,217.39839999999998,614.16805L217.39839999999998,617.42L216.5814,617.42Q216.5814,616.8373,216.5814,616.668Q216.3438,617.0912,215.9434,617.3093Q215.543,617.5242,215.02859999999998,617.5242Q214.5371,617.5242,214.10739999999998,617.3321Q213.67770000000002,617.1401,213.42059999999998,616.7592Q213.1667,616.3751,213.1667,615.84122Q213.1667,615.03393,213.77859999999998,614.56844Q214.3939,614.10294,215.3639,614.10294Q215.91410000000002,614.10294,216.5,614.27872L216.5,614.19734Q216.5,613.55281,216.2135,613.24031Q215.9271,612.92456,215.3477,612.92456Q214.8789,612.92456,214.5697,613.09383Q214.2604,613.2631,214.04559999999998,613.59839L213.388,613.28263Q213.6289,612.74552,214.16930000000002,612.42651Q214.7129,612.1075,215.40949999999998,612.1075ZM216.5,615.07625Q215.8913,614.92,215.38670000000002,614.92Q214.752,614.92,214.4069,615.16414Q214.0651,615.40503,214.0651,615.84448Q214.0651,616.2481,214.3548,616.4792Q214.64780000000002,616.7071,215.11329999999998,616.7071Q215.68619999999999,616.7071,216.0931,616.3718Q216.5,616.0365,216.5,615.44409L216.5,615.07625ZM221.7604,617.2442Q221.3535,617.5242,220.73180000000002,617.5242Q219.2083,617.5242,219.2083,615.7631L219.2083,613.02872L218.375,613.02872L218.375,612.21167L219.2083,612.21167L219.2083,610.64917L220.10680000000002,610.64917L220.10680000000002,612.21167L221.5,612.21167L221.5,613.02872L220.10680000000002,613.02872L220.10680000000002,615.64266Q220.10680000000002,616.7071,220.862,616.7071Q221.19400000000002,616.7071,221.4805,616.5313L221.7604,617.2442ZM223.0592,611.17Q222.8444,611.17,222.6914,610.9812Q222.5417,610.7924,222.5417,610.545Q222.5417,610.2976,222.6914,610.1088Q222.8444,609.92,223.0592,609.92Q223.2773,609.92,223.4303,610.10555Q223.5833,610.28784,223.5833,610.545Q223.5833,610.7924,223.4238,610.9812Q223.26760000000002,611.17,223.0592,611.17ZM223.5833,617.42L222.6849,617.42L222.6849,612.21167L223.5833,612.21167L223.5833,617.42ZM224.625,614.81583Q224.625,614.03784,224.97,613.41935Q225.3184,612.7976,225.8913,612.45255Q226.4674,612.1075,227.13150000000002,612.1075Q227.79559999999998,612.1075,228.36849999999998,612.4493Q228.9414,612.78784,229.2832,613.40958Q229.625,614.02807,229.625,614.81583Q229.625,615.60685,229.2832,616.2221Q228.9414,616.8341,228.36849999999998,617.1791Q227.79559999999998,617.5242,227.13150000000002,617.5242Q226.4674,617.5242,225.888,617.1791Q225.3086,616.8341,224.9668,616.2221Q224.625,615.60685,224.625,614.81583ZM225.52339999999998,614.81583Q225.52339999999998,615.39852,225.735,615.82495Q225.9466,616.2514,226.31119999999999,616.4792Q226.67579999999998,616.7071,227.1283,616.7071Q227.584,616.7071,227.9486,616.4792Q228.31310000000002,616.2514,228.51819999999998,615.82495Q228.72660000000002,615.39852,228.72660000000002,614.81583Q228.72660000000002,614.23315,228.51819999999998,613.80997Q228.31310000000002,613.38354,227.9486,613.15568Q227.584,612.92456,227.1283,612.92456Q226.67579999999998,612.92456,226.31119999999999,613.15568Q225.9466,613.38354,225.735,613.80997Q225.52339999999998,614.23315,225.52339999999998,614.81583ZM233.4303,612.1075Q234.2539,612.1075,234.752,612.65763Q235.25,613.20776,235.25,614.21688L235.25,617.42L234.35160000000002,617.42L234.35160000000002,614.46102Q234.35160000000002,613.72208,234.0618,613.32495Q233.7721,612.92456,233.20569999999998,612.92456Q232.8379,612.92456,232.5091,613.10034Q232.1836,613.27286,231.9785,613.61792Q231.77339999999998,613.96297,231.77339999999998,614.47078L231.77339999999998,617.42L230.875,617.42L230.875,612.21167L231.6823,612.21167Q231.6823,612.72599,231.7344,613.09383Q231.9948,612.6088,232.4375,612.35815Q232.8802,612.1075,233.4303,612.1075Z" fill="#FFFFFF" fill-opacity="1"/></g></g></g></g></g></g></g></svg>